<?xml version="1.0" encoding="UTF-8"?>
<svg id="Layer_2" data-name="Layer 2" xmlns="http://www.w3.org/2000/svg" viewBox="0 0 142 141.41">
  <defs>
    <style>
      .cls-1 {
        fill: none;
        stroke: #000;
        stroke-linecap: round;
        stroke-miterlimit: 10;
        stroke-width: 4px;
      }
    </style>
  </defs>
  <g id="Layer_4_copy" data-name="Layer 4 copy">
    <g>
      <path class="cls-1" d="m30.59,14.77c9.89-7.43,20.82-11.52,33.82-12.76"/>
      <path class="cls-1" d="m23.69,121.28c-13.73-12.61-21.69-30.46-21.69-50.57s7.19-36.38,20.37-48.95"/>
      <path class="cls-1" d="m64.62,139.41c-13.05-1.2-24.31-5.54-34.23-12.99"/>
      <path class="cls-1" d="m127.93,109.7c-11.22,16.88-29.09,27.68-50.35,29.7"/>
      <path class="cls-1" d="m118.92,21.06c13.33,12.58,21.08,29.86,21.08,49.64,0,11.89-2.4,21.73-7.7,31.49"/>
      <path class="cls-1" d="m77.44,2c13.26,1.23,25.43,6.21,35.45,13.87"/>
      <polyline class="cls-1" points="8.83 100.66 12.28 90.85 12.28 54.94 21.81 40.13 21.81 23.33"/>
      <polyline class="cls-1" points="22.76 120.03 22.76 57.49 31.85 44.38 31.85 14.77"/>
      <line class="cls-1" x1="62.16" y1="139.14" x2="62.16" y2="2.26"/>
      <polyline class="cls-1" points="129.07 33.42 129.07 96.81 132.6 101.82"/>
      <polyline class="cls-1" points="119.39 21.52 119.39 101.82 127.14 110.82"/>
      <path class="cls-1" d="m31.85,126.43V61.24l9.02-13.62v-25.36c0-2.93,6.23-6.58,9.02-7.49,5.77-1.88,12.26-1.88,12.26-1.88"/>
      <path class="cls-1" d="m31.85,77.92l9.13,11.91s-.11,24-.11,30.23c0,2.93,6.23,6.58,9.02,7.49,5.77,1.88,12.26,1.88,12.26,1.88"/>
      <path class="cls-1" d="m80,12.89s6.96,0,12.72,1.88c2.79.91,9.02,4.55,9.02,7.49v11.67c0,2.25-.77,4.43-2.19,6.18-4.69,5.77-15.79,19.45-22.42,27.51-2.26,2.74-1.62,7.4,0,9.62,5.45,7.46,17.62,22.95,22.51,29.17,1.36,1.73,2.1,3.86,2.1,6.07v7.6c0,2.93-6.23,6.58-9.02,7.49-5.77,1.88-12.72,1.88-12.72,1.88"/>
      <path class="cls-1" d="m90.48,128.18v-17.05c0-2.2-.74-4.34-2.1-6.07-4.9-6.21-17.06-21.71-22.51-29.17-1.62-2.21-2.26-6.87,0-9.62,6.63-8.07,17.74-21.74,22.42-27.51,1.42-1.75,2.19-3.93,2.19-6.18V14.14"/>
      <path class="cls-1" d="m111.66,14.95v19.22c0,2.25-.77,4.43-2.19,6.18-4.69,5.77-15.79,19.45-22.42,27.51-2.26,2.74-1.62,7.4,0,9.62,5.45,7.46,17.62,22.95,22.51,29.17,1.36,1.73,2.1,3.86,2.1,6.07v13.75"/>
      <line class="cls-1" x1="51.49" y1="14.31" x2="51.49" y2="128.01"/>
      <path class="cls-1" d="m80,139.04v-29.22c0-1.35-.53-2.65-1.48-3.62l-1.69-1.73"/>
      <path class="cls-1" d="m80,3.05v29.22c0,1.35-.53,2.65-1.48,3.62l-1.69,1.73"/>
    </g>
  </g>
</svg>